<!DOCTYPE svg PUBLIC "-//W3C//DTD SVG 20010904//EN" "http://www.w3.org/TR/2001/REC-SVG-20010904/DTD/svg10.dtd">
<svg version="1.0" xmlns="http://www.w3.org/2000/svg" width="1778px" height="684px" viewBox="0 0 12000 4620" preserveAspectRatio="xMidYMid meet">
<g id="layer101" fill="#ffffff" stroke="none">
 <path d="M462 4341 c-64 -26 -111 -67 -133 -118 -18 -43 -19 -81 -18 -1131 0 -995 2 -1090 17 -1124 16 -33 91 -121 252 -292 36 -38 72 -77 80 -86 70 -76 339 -366 436 -470 39 -41 95 -102 125 -135 30 -32 63 -69 74 -80 188 -200 293 -314 357 -387 9 -11 60 -64 112 -119 53 -55 103 -113 110 -127 8 -15 31 -42 51 -59 36 -32 40 -33 124 -33 96 0 98 2 185 102 16 18 79 85 140 148 61 64 181 189 266 280 171 181 207 219 348 365 54 56 133 139 177 186 44 46 172 181 285 299 186 194 283 298 349 370 13 14 27 35 32 48 5 13 9 484 9 1105 0 1082 0 1082 -21 1117 -23 38 -67 79 -86 80 -7 0 -28 8 -47 17 -33 15 -39 15 -89 -2 -54 -18 -127 -75 -127 -98 0 -7 -6 -19 -12 -25 -10 -10 -13 -236 -15 -1049 l-2 -1036 -63 -66 c-35 -37 -153 -160 -263 -275 -110 -115 -205 -214 -210 -220 -43 -46 -370 -390 -410 -431 -61 -62 -345 -363 -402 -425 l-42 -45 -36 40 c-180 196 -216 235 -370 400 -60 65 -114 123 -120 130 -23 25 -128 139 -246 265 -69 74 -152 164 -184 200 -55 61 -117 127 -225 240 -25 26 -78 83 -117 128 l-73 81 0 925 0 926 520 0 520 0 5 -22 c3 -13 10 -84 15 -158 5 -74 14 -157 19 -185 5 -27 10 -90 10 -138 1 -49 5 -96 10 -105 10 -19 23 -251 21 -371 l-1 -73 -64 -67 c-162 -169 -214 -281 -231 -496 -3 -33 -12 -74 -20 -92 -9 -19 -14 -63 -14 -117 0 -80 2 -87 27 -111 21 -18 39 -25 70 -25 59 0 98 40 106 109 10 85 26 97 28 21 3 -227 18 -520 28 -550 20 -65 102 -89 175 -52 l36 17 1 165 2 165 11 -187 c10 -172 13 -189 33 -209 18 -18 33 -22 81 -22 39 1 69 7 86 18 l26 17 1 212 c1 119 5 198 9 181 4 -16 8 -91 9 -166 l1 -135 30 -22 c43 -32 118 -31 154 3 l27 25 -5 238 c-3 130 -1 217 3 192 15 -84 35 -145 55 -167 28 -33 112 -32 150 1 32 27 32 37 1 261 -9 66 -20 161 -24 210 -5 50 -14 106 -20 125 -6 19 -11 53 -11 75 0 22 -7 49 -15 59 -8 11 -15 29 -15 40 0 42 -66 189 -128 286 -21 33 -22 44 -19 165 5 152 24 403 33 425 4 8 10 71 15 140 19 283 29 387 38 425 33 129 -19 229 -145 276 -46 18 -95 19 -934 18 -813 -1 -889 -2 -928 -18z m1714 -1638 c103 -101 134 -153 134 -226 0 -69 -18 -87 -85 -87 -41 0 -58 5 -77 24 -42 38 -56 39 -96 6 -30 -25 -46 -30 -87 -30 -28 0 -56 5 -63 12 -16 16 -16 132 1 161 33 60 86 121 151 174 46 37 51 36 122 -34z"/>
 <path d="M4970 3117 c0 -7 -15 -18 -34 -25 -18 -7 -61 -42 -95 -77 l-61 -65 0 -128 0 -127 52 -59 c70 -79 128 -106 228 -106 90 0 158 27 208 84 51 58 43 116 -17 116 -30 0 -42 -6 -60 -31 -46 -63 -151 -78 -227 -34 -86 50 -109 176 -49 267 62 93 198 101 285 17 43 -42 78 -50 104 -23 39 38 -20 126 -110 164 -23 10 -45 23 -48 29 -11 17 -176 15 -176 -2z"/>
 <path d="M5760 3122 c0 -5 -22 -18 -48 -30 -54 -25 -126 -91 -147 -137 -35 -75 -34 -189 1 -263 25 -53 105 -125 161 -145 73 -26 165 -23 228 8 68 34 105 71 138 139 22 45 27 68 27 130 0 121 -54 212 -155 262 -30 14 -55 30 -55 35 0 5 -34 9 -75 9 -41 0 -75 -4 -75 -8z m160 -137 c95 -49 121 -198 48 -281 -41 -46 -77 -64 -131 -64 -173 0 -250 197 -125 318 18 18 46 37 63 42 38 12 107 5 145 -15z"/>
 <path d="M6390 3112 c-12 -13 -16 -59 -18 -242 -2 -123 -1 -248 3 -276 5 -45 10 -53 31 -58 45 -12 56 -2 204 174 12 14 36 41 54 60 17 19 53 61 79 93 l47 59 0 -186 c0 -173 1 -186 19 -196 28 -14 57 -12 75 6 14 13 16 52 16 274 0 292 -3 310 -57 310 -18 0 -33 -3 -33 -7 0 -7 -13 -24 -73 -93 -12 -14 -42 -50 -67 -80 -25 -30 -62 -72 -83 -95 -21 -22 -52 -60 -70 -84 l-32 -43 -6 198 c-3 110 -6 200 -7 202 -7 10 -70 -2 -82 -16z"/>
 <path d="M7300 3121 c0 -4 -28 -22 -63 -40 -74 -38 -90 -59 -81 -106 5 -31 10 -35 36 -35 16 0 48 12 71 28 53 34 58 36 139 35 83 0 118 -19 118 -64 0 -39 -36 -55 -150 -64 -127 -11 -187 -49 -209 -132 -21 -80 15 -153 93 -189 41 -19 68 -24 135 -24 75 0 89 3 143 33 l59 32 -3 45 c-3 42 -5 45 -34 48 -21 2 -44 -5 -69 -22 -73 -50 -215 -28 -215 32 0 15 4 32 8 37 12 18 85 35 148 35 122 1 215 78 214 177 -1 50 -42 109 -99 139 -24 13 -49 28 -55 34 -12 12 -186 14 -186 1z"/>
 <path d="M8034 3095 c-11 -26 -14 -84 -14 -245 l0 -210 -81 0 c-44 0 -89 -5 -100 -10 -22 -12 -27 -68 -7 -88 9 -9 77 -12 243 -12 212 0 233 2 248 18 23 25 22 69 -2 82 -11 5 -58 10 -105 10 l-86 0 0 228 c-1 246 -4 262 -54 262 -21 0 -30 -7 -42 -35z"/>
 <path d="M8559 3103 c-21 -39 -21 -532 0 -557 13 -16 32 -17 165 -14 l151 3 47 32 c110 77 118 220 18 306 -23 19 -37 38 -31 41 21 13 91 127 91 148 0 52 -11 68 -44 68 -27 0 -37 -9 -81 -71 -27 -39 -57 -83 -66 -98 -14 -23 -22 -26 -82 -29 l-67 -3 0 72 c0 86 -20 129 -60 129 -19 0 -31 -8 -41 -27z m306 -310 c40 -40 39 -101 -3 -133 -20 -17 -40 -20 -113 -20 l-89 0 0 85 0 85 94 0 c75 0 98 -3 111 -17z"/>
 <path d="M9410 3121 c0 -6 -17 -19 -38 -31 -45 -25 -79 -73 -103 -143 -26 -74 -28 -377 -3 -402 18 -18 74 -18 86 0 4 5 8 75 8 155 1 164 9 220 37 259 41 55 125 76 185 45 76 -39 88 -76 88 -265 0 -170 5 -197 37 -205 13 -4 35 -2 49 5 l24 11 0 182 c0 149 -3 192 -17 232 -19 52 -92 136 -118 136 -8 0 -15 7 -15 15 0 12 -19 15 -110 15 -62 0 -110 -4 -110 -9z"/>
 <path d="M10226 3108 c-3 -13 -6 -65 -6 -116 0 -51 -5 -98 -11 -105 -41 -47 -200 -277 -206 -296 -3 -13 -1 -31 4 -40 15 -24 68 -26 90 -3 32 34 53 62 53 71 0 5 4 11 8 13 5 2 31 36 57 76 40 59 51 70 61 60 7 -7 44 -58 82 -113 73 -108 103 -132 145 -121 23 5 27 12 27 42 0 25 -9 48 -29 73 -15 20 -52 70 -81 111 -107 150 -100 133 -100 239 -1 109 -10 131 -57 131 -23 0 -32 -5 -37 -22z"/>
 <path d="M10772 3110 c-9 -14 -12 -92 -12 -290 0 -258 1 -270 20 -280 12 -7 91 -9 212 -8 l193 3 3 46 c4 58 2 59 -180 59 l-138 0 0 60 0 60 123 0 c145 0 160 6 155 65 l-3 40 -137 3 -138 3 0 64 0 65 138 0 c186 0 182 -1 182 71 l0 59 -203 0 c-191 0 -203 -1 -215 -20z"/>
 <path d="M6937 2322 c-14 -16 -17 -44 -17 -178 0 -87 5 -176 11 -196 9 -36 12 -38 52 -38 24 0 48 5 55 12 8 8 12 67 12 199 0 183 -1 188 -22 203 -30 21 -71 20 -91 -2z"/>
 <path d="M7387 2322 c-14 -15 -17 -42 -17 -155 l0 -137 -66 0 c-81 0 -101 -10 -110 -55 -12 -64 -7 -65 236 -65 241 0 245 1 234 61 -11 54 -19 59 -100 59 l-74 0 0 139 c0 77 -3 146 -6 155 -9 23 -76 21 -97 -2z"/>
 <path d="M7806 2324 c-29 -29 -22 -47 98 -241 96 -156 111 -173 148 -173 26 0 58 19 58 34 0 3 37 64 83 136 108 172 107 169 107 212 0 32 -4 39 -26 44 -43 11 -74 -7 -103 -61 l-27 -50 -92 -3 -91 -3 -33 58 c-30 52 -38 58 -70 61 -23 2 -41 -3 -52 -14z"/>
 <path d="M8486 2324 c-23 -23 -24 -359 0 -392 20 -29 66 -29 92 1 11 12 41 44 66 71 25 27 56 64 68 82 13 19 28 34 33 33 10 0 167 -180 173 -199 6 -17 78 -12 93 7 11 12 14 59 14 198 0 201 -4 215 -59 215 -54 0 -60 -11 -66 -111 l-5 -92 -55 67 c-30 36 -65 69 -77 72 -32 9 -66 -15 -122 -85 l-51 -64 0 96 c0 85 -2 98 -19 107 -29 15 -67 12 -85 -6z"/>
 <path d="M5223 2124 c-3 -9 -2 -28 3 -43 l9 -26 750 0 750 0 3 43 3 42 -756 0 c-687 0 -756 -1 -762 -16z"/>
 <path d="M9242 2088 l3 -43 750 0 750 0 0 40 0 40 -753 3 -753 2 3 -42z"/>
 </g>

</svg>